<svg xmlns="http://www.w3.org/2000/svg" viewBox="0 0 87.3 78" width="87.3" height="78" role="img" aria-label="Google Drive logo">
  <path d="M6.6 66.85l3.85 6.65c.8 1.4 1.95 2.5 3.3 3.3l13.75-23.8H0c0 1.55.4 3.1 1.2 4.5z" fill="#0066da"/>
  <path d="M43.65 25L29.9 1.2c-1.35.8-2.5 1.9-3.3 3.3L1.2 48.4C.4 49.8 0 51.35 0 52.9h27.45z" fill="#00ac47"/>
  <path d="M73.55 76.8c1.35-.8 2.5-1.9 3.3-3.3l1.6-2.75 7.65-13.25c.8-1.4 1.2-2.95 1.2-4.5H59.75l5.85 11.5z" fill="#ea4335"/>
  <path d="M43.65 25L57.4 1.2C56.05.4 54.5 0 52.9 0H34.4c-1.6 0-3.15.45-4.5 1.2z" fill="#00832d"/>
  <path d="M59.75 52.9H27.45L13.7 76.7c1.35.8 2.9 1.2 4.5 1.2h50.8c1.6 0 3.15-.45 4.5-1.2z" fill="#2684fc"/>
  <path d="M73.4 26.5L60.75 4.5c-.8-1.4-1.95-2.5-3.3-3.3L43.65 25l16.1 27.9h27.4c0-1.55-.4-3.1-1.2-4.5z" fill="#ffba00"/>
</svg>
