<svg width="1802" height="509" viewBox="0 0 1802 509" fill="none" xmlns="http://www.w3.org/2000/svg">
<path d="M115.4 352V145.92H202.44C225.48 145.92 242.44 152.107 253.32 164.48C264.2 176.853 269.64 192.853 269.64 212.48C269.64 232.533 263.453 248.427 251.08 260.16C238.92 271.68 222.28 277.44 201.16 277.44H141.64V352H115.4ZM141.64 256.96H197C212.36 256.96 223.88 253.013 231.56 245.12C239.453 237.013 243.4 226.133 243.4 212.48C243.4 197.973 239.667 186.773 232.2 178.88C224.947 170.773 213.747 166.72 198.6 166.72H141.64V256.96ZM301.65 352V200.32H325.33L327.25 219.52C334.717 214.613 343.463 210.133 353.49 206.08C363.73 202.027 373.757 199.04 383.57 197.12V217.6C377.597 218.88 371.09 220.693 364.05 223.04C357.01 225.173 350.29 227.627 343.89 230.4C337.49 233.173 332.157 236.053 327.89 239.04V352H301.65ZM475.465 355.2C449.012 355.2 429.705 348.48 417.545 335.04C405.598 321.387 399.625 301.76 399.625 276.16C399.625 250.773 405.705 231.253 417.865 217.6C430.025 203.947 449.225 197.12 475.465 197.12C501.705 197.12 520.905 203.947 533.065 217.6C545.225 231.253 551.305 250.773 551.305 276.16C551.305 301.76 545.332 321.387 533.385 335.04C521.438 348.48 502.132 355.2 475.465 355.2ZM475.465 332.8C493.598 332.8 506.398 328.32 513.865 319.36C521.332 310.187 525.065 295.787 525.065 276.16C525.065 256.533 521.225 242.24 513.545 233.28C506.078 224.107 493.385 219.52 475.465 219.52C457.545 219.52 444.745 224.107 437.065 233.28C429.598 242.24 425.865 256.533 425.865 276.16C425.865 295.787 429.598 310.187 437.065 319.36C444.532 328.32 457.332 332.8 475.465 332.8ZM589.775 352V200.32H613.455L615.055 217.6C623.162 211.2 631.695 206.187 640.655 202.56C649.828 198.933 659.642 197.12 670.095 197.12C681.402 197.12 690.148 198.933 696.335 202.56C702.735 206.187 707.428 211.307 710.415 217.92C717.668 211.947 725.988 207.04 735.375 203.2C744.762 199.147 755.962 197.12 768.975 197.12C786.255 197.12 799.055 201.6 807.375 210.56C815.908 219.307 820.175 232.853 820.175 251.2V352H794.255V253.76C794.255 240.32 791.375 231.04 785.615 225.92C780.068 220.8 771.002 218.24 758.415 218.24C750.095 218.24 742.095 219.627 734.415 222.4C726.948 225.173 720.548 229.44 715.215 235.2C716.495 240.533 717.135 246.72 717.135 253.76V352H692.495V254.4C692.495 241.6 690.362 232.427 686.095 226.88C681.828 221.12 673.402 218.24 660.815 218.24C652.282 218.24 644.068 220.16 636.175 224C628.495 227.627 621.668 232.213 615.695 237.76V352H589.775ZM863.525 421.12V200.32H885.925L887.845 216.32C894.885 209.707 902.565 204.907 910.885 201.92C919.418 198.72 929.338 197.12 940.645 197.12C961.978 197.12 978.725 203.093 990.885 215.04C1003.05 226.773 1009.13 246.4 1009.13 273.92C1009.13 301.227 1003.05 321.6 990.885 335.04C978.725 348.48 961.872 355.2 940.325 355.2C920.485 355.2 903.632 350.4 889.765 340.8V421.12H863.525ZM933.285 334.08C950.352 334.08 962.832 329.28 970.725 319.68C978.832 309.867 982.885 294.613 982.885 273.92C982.885 254.08 979.152 239.893 971.685 231.36C964.218 222.613 951.632 218.24 933.925 218.24C925.178 218.24 917.072 219.733 909.605 222.72C902.138 225.707 895.525 230.293 889.765 236.48V319.04C895.098 323.733 901.392 327.467 908.645 330.24C915.898 332.8 924.112 334.08 933.285 334.08ZM1102.95 355.2C1088.01 355.2 1076.71 351.253 1069.03 343.36C1061.56 335.253 1057.83 324.053 1057.83 309.76V221.12H1034.79V200.32H1057.83V162.88L1084.07 154.88V200.32H1125.99L1124.39 221.12H1084.07V308.48C1084.07 317.653 1086.09 324.267 1090.15 328.32C1094.41 332.16 1101.67 334.08 1111.91 334.08C1117.45 334.08 1123.53 333.013 1130.15 330.88V350.72C1122.25 353.707 1113.19 355.2 1102.95 355.2Z" fill="#333333"/>
<path d="M1201.04 355.2C1184.4 355.2 1172.45 351.573 1165.2 344.32C1157.95 337.067 1154.32 325.44 1154.32 309.44V136.32H1205.84V304.32C1205.84 309.227 1206.8 312.64 1208.72 314.56C1210.85 316.267 1213.95 317.12 1218 317.12C1223.76 317.12 1228.88 316.373 1233.36 314.88V349.76C1228.45 351.68 1223.55 353.067 1218.64 353.92C1213.95 354.773 1208.08 355.2 1201.04 355.2ZM1334.04 355.2C1307.58 355.2 1286.36 348.693 1270.36 335.68C1254.36 322.453 1246.36 302.613 1246.36 276.16C1246.36 252.053 1252.97 232.853 1266.2 218.56C1279.42 204.267 1299.26 197.12 1325.72 197.12C1349.82 197.12 1368.49 203.307 1381.72 215.68C1394.94 228.053 1401.56 244.693 1401.56 265.6V292.8H1294.04C1296.38 302.827 1301.82 309.867 1310.36 313.92C1319.1 317.76 1330.94 319.68 1345.88 319.68C1354.2 319.68 1362.62 318.933 1371.16 317.44C1379.9 315.947 1387.16 314.027 1392.92 311.68V345.28C1385.66 348.693 1377.02 351.147 1367 352.64C1356.97 354.347 1345.98 355.2 1334.04 355.2ZM1294.04 263.04H1356.76V256.32C1356.76 248.853 1354.52 242.987 1350.04 238.72C1345.56 234.24 1337.98 232 1327.32 232C1314.94 232 1306.3 234.56 1301.4 239.68C1296.49 244.587 1294.04 252.373 1294.04 263.04ZM1482.52 355.2C1470.36 355.2 1458.84 354.347 1447.96 352.64C1437.08 350.933 1428.44 348.8 1422.04 346.24V306.88C1429.5 310.08 1438.14 312.533 1447.96 314.24C1457.77 315.947 1466.52 316.8 1474.2 316.8C1483.37 316.8 1489.98 316.373 1494.04 315.52C1498.3 314.667 1500.44 312.32 1500.44 308.48C1500.44 304.213 1497.02 301.013 1490.2 298.88C1483.37 296.747 1473.98 293.653 1462.04 289.6C1448.17 284.693 1437.61 279.04 1430.36 272.64C1423.32 266.027 1419.8 256.32 1419.8 243.52C1419.8 228.587 1425.34 217.173 1436.44 209.28C1447.74 201.173 1465.66 197.12 1490.2 197.12C1499.8 197.12 1509.29 197.867 1518.68 199.36C1528.06 200.853 1535.74 202.56 1541.72 204.48V243.2C1535.74 240.427 1528.92 238.4 1521.24 237.12C1513.56 235.84 1506.62 235.2 1500.44 235.2C1492.54 235.2 1485.82 235.733 1480.28 236.8C1474.94 237.653 1472.28 239.893 1472.28 243.52C1472.28 247.573 1475.26 250.453 1481.24 252.16C1487.21 253.653 1495.85 256.213 1507.16 259.84C1519.1 263.467 1528.38 267.413 1535 271.68C1541.61 275.733 1546.3 280.64 1549.08 286.4C1551.85 292.16 1553.24 299.413 1553.24 308.16C1553.24 323.307 1547.26 334.933 1535.32 343.04C1523.37 351.147 1505.77 355.2 1482.52 355.2ZM1627.52 355.2C1615.36 355.2 1603.84 354.347 1592.96 352.64C1582.08 350.933 1573.44 348.8 1567.04 346.24V306.88C1574.5 310.08 1583.14 312.533 1592.96 314.24C1602.77 315.947 1611.52 316.8 1619.2 316.8C1628.37 316.8 1634.98 316.373 1639.04 315.52C1643.3 314.667 1645.44 312.32 1645.44 308.48C1645.44 304.213 1642.02 301.013 1635.2 298.88C1628.37 296.747 1618.98 293.653 1607.04 289.6C1593.17 284.693 1582.61 279.04 1575.36 272.64C1568.32 266.027 1564.8 256.32 1564.8 243.52C1564.8 228.587 1570.34 217.173 1581.44 209.28C1592.74 201.173 1610.66 197.12 1635.2 197.12C1644.8 197.12 1654.29 197.867 1663.68 199.36C1673.06 200.853 1680.74 202.56 1686.72 204.48V243.2C1680.74 240.427 1673.92 238.4 1666.24 237.12C1658.56 235.84 1651.62 235.2 1645.44 235.2C1637.54 235.2 1630.82 235.733 1625.28 236.8C1619.94 237.653 1617.28 239.893 1617.28 243.52C1617.28 247.573 1620.26 250.453 1626.24 252.16C1632.21 253.653 1640.85 256.213 1652.16 259.84C1664.1 263.467 1673.38 267.413 1680 271.68C1686.61 275.733 1691.3 280.64 1694.08 286.4C1696.85 292.16 1698.24 299.413 1698.24 308.16C1698.24 323.307 1692.26 334.933 1680.32 343.04C1668.37 351.147 1650.77 355.2 1627.52 355.2Z" fill="#506AEA"/>
</svg>
