<svg width="1740" height="510" viewBox="0 0 1740 510" fill="none" xmlns="http://www.w3.org/2000/svg">
<path d="M84.4 352V145.92H171.44C194.48 145.92 211.44 152.107 222.32 164.48C233.2 176.853 238.64 192.853 238.64 212.48C238.64 232.533 232.453 248.427 220.08 260.16C207.92 271.68 191.28 277.44 170.16 277.44H110.64V352H84.4ZM110.64 256.96H166C181.36 256.96 192.88 253.013 200.56 245.12C208.453 237.013 212.4 226.133 212.4 212.48C212.4 197.973 208.667 186.773 201.2 178.88C193.947 170.773 182.747 166.72 167.6 166.72H110.64V256.96ZM270.65 352V200.32H294.33L296.25 219.52C303.717 214.613 312.463 210.133 322.49 206.08C332.73 202.027 342.757 199.04 352.57 197.12V217.6C346.597 218.88 340.09 220.693 333.05 223.04C326.01 225.173 319.29 227.627 312.89 230.4C306.49 233.173 301.157 236.053 296.89 239.04V352H270.65ZM444.465 355.2C418.012 355.2 398.705 348.48 386.545 335.04C374.598 321.387 368.625 301.76 368.625 276.16C368.625 250.773 374.705 231.253 386.865 217.6C399.025 203.947 418.225 197.12 444.465 197.12C470.705 197.12 489.905 203.947 502.065 217.6C514.225 231.253 520.305 250.773 520.305 276.16C520.305 301.76 514.332 321.387 502.385 335.04C490.438 348.48 471.132 355.2 444.465 355.2ZM444.465 332.8C462.598 332.8 475.398 328.32 482.865 319.36C490.332 310.187 494.065 295.787 494.065 276.16C494.065 256.533 490.225 242.24 482.545 233.28C475.078 224.107 462.385 219.52 444.465 219.52C426.545 219.52 413.745 224.107 406.065 233.28C398.598 242.24 394.865 256.533 394.865 276.16C394.865 295.787 398.598 310.187 406.065 319.36C413.532 328.32 426.332 332.8 444.465 332.8ZM558.775 352V200.32H582.455L584.055 217.6C592.162 211.2 600.695 206.187 609.655 202.56C618.828 198.933 628.642 197.12 639.095 197.12C650.402 197.12 659.148 198.933 665.335 202.56C671.735 206.187 676.428 211.307 679.415 217.92C686.668 211.947 694.988 207.04 704.375 203.2C713.762 199.147 724.962 197.12 737.975 197.12C755.255 197.12 768.055 201.6 776.375 210.56C784.908 219.307 789.175 232.853 789.175 251.2V352H763.255V253.76C763.255 240.32 760.375 231.04 754.615 225.92C749.068 220.8 740.002 218.24 727.415 218.24C719.095 218.24 711.095 219.627 703.415 222.4C695.948 225.173 689.548 229.44 684.215 235.2C685.495 240.533 686.135 246.72 686.135 253.76V352H661.495V254.4C661.495 241.6 659.362 232.427 655.095 226.88C650.828 221.12 642.402 218.24 629.815 218.24C621.282 218.24 613.068 220.16 605.175 224C597.495 227.627 590.668 232.213 584.695 237.76V352H558.775ZM832.525 421.12V200.32H854.925L856.845 216.32C863.885 209.707 871.565 204.907 879.885 201.92C888.418 198.72 898.338 197.12 909.645 197.12C930.978 197.12 947.725 203.093 959.885 215.04C972.045 226.773 978.125 246.4 978.125 273.92C978.125 301.227 972.045 321.6 959.885 335.04C947.725 348.48 930.872 355.2 909.325 355.2C889.485 355.2 872.632 350.4 858.765 340.8V421.12H832.525ZM902.285 334.08C919.352 334.08 931.832 329.28 939.725 319.68C947.832 309.867 951.885 294.613 951.885 273.92C951.885 254.08 948.152 239.893 940.685 231.36C933.218 222.613 920.632 218.24 902.925 218.24C894.178 218.24 886.072 219.733 878.605 222.72C871.138 225.707 864.525 230.293 858.765 236.48V319.04C864.098 323.733 870.392 327.467 877.645 330.24C884.898 332.8 893.112 334.08 902.285 334.08ZM1071.95 355.2C1057.01 355.2 1045.71 351.253 1038.03 343.36C1030.56 335.253 1026.83 324.053 1026.83 309.76V221.12H1003.79V200.32H1026.83V162.88L1053.07 154.88V200.32H1094.99L1093.39 221.12H1053.07V308.48C1053.07 317.653 1055.09 324.267 1059.15 328.32C1063.41 332.16 1070.67 334.08 1080.91 334.08C1086.45 334.08 1092.53 333.013 1099.15 330.88V350.72C1091.25 353.707 1082.19 355.2 1071.95 355.2Z" fill="white"/>
<path d="M1170.04 355.2C1153.4 355.2 1141.45 351.573 1134.2 344.32C1126.95 337.067 1123.32 325.44 1123.32 309.44V136.32H1174.84V304.32C1174.84 309.227 1175.8 312.64 1177.72 314.56C1179.85 316.267 1182.95 317.12 1187 317.12C1192.76 317.12 1197.88 316.373 1202.36 314.88V349.76C1197.45 351.68 1192.55 353.067 1187.64 353.92C1182.95 354.773 1177.08 355.2 1170.04 355.2ZM1303.04 355.2C1276.58 355.2 1255.36 348.693 1239.36 335.68C1223.36 322.453 1215.36 302.613 1215.36 276.16C1215.36 252.053 1221.97 232.853 1235.2 218.56C1248.42 204.267 1268.26 197.12 1294.72 197.12C1318.82 197.12 1337.49 203.307 1350.72 215.68C1363.94 228.053 1370.56 244.693 1370.56 265.6V292.8H1263.04C1265.38 302.827 1270.82 309.867 1279.36 313.92C1288.1 317.76 1299.94 319.68 1314.88 319.68C1323.2 319.68 1331.62 318.933 1340.16 317.44C1348.9 315.947 1356.16 314.027 1361.92 311.68V345.28C1354.66 348.693 1346.02 351.147 1336 352.64C1325.97 354.347 1314.98 355.2 1303.04 355.2ZM1263.04 263.04H1325.76V256.32C1325.76 248.853 1323.52 242.987 1319.04 238.72C1314.56 234.24 1306.98 232 1296.32 232C1283.94 232 1275.3 234.56 1270.4 239.68C1265.49 244.587 1263.04 252.373 1263.04 263.04ZM1451.52 355.2C1439.36 355.2 1427.84 354.347 1416.96 352.64C1406.08 350.933 1397.44 348.8 1391.04 346.24V306.88C1398.5 310.08 1407.14 312.533 1416.96 314.24C1426.77 315.947 1435.52 316.8 1443.2 316.8C1452.37 316.8 1458.98 316.373 1463.04 315.52C1467.3 314.667 1469.44 312.32 1469.44 308.48C1469.44 304.213 1466.02 301.013 1459.2 298.88C1452.37 296.747 1442.98 293.653 1431.04 289.6C1417.17 284.693 1406.61 279.04 1399.36 272.64C1392.32 266.027 1388.8 256.32 1388.8 243.52C1388.8 228.587 1394.34 217.173 1405.44 209.28C1416.74 201.173 1434.66 197.12 1459.2 197.12C1468.8 197.12 1478.29 197.867 1487.68 199.36C1497.06 200.853 1504.74 202.56 1510.72 204.48V243.2C1504.74 240.427 1497.92 238.4 1490.24 237.12C1482.56 235.84 1475.62 235.2 1469.44 235.2C1461.54 235.2 1454.82 235.733 1449.28 236.8C1443.94 237.653 1441.28 239.893 1441.28 243.52C1441.28 247.573 1444.26 250.453 1450.24 252.16C1456.21 253.653 1464.85 256.213 1476.16 259.84C1488.1 263.467 1497.38 267.413 1504 271.68C1510.61 275.733 1515.3 280.64 1518.08 286.4C1520.85 292.16 1522.24 299.413 1522.24 308.16C1522.24 323.307 1516.26 334.933 1504.32 343.04C1492.37 351.147 1474.77 355.2 1451.52 355.2ZM1596.52 355.2C1584.36 355.2 1572.84 354.347 1561.96 352.64C1551.08 350.933 1542.44 348.8 1536.04 346.24V306.88C1543.5 310.08 1552.14 312.533 1561.96 314.24C1571.77 315.947 1580.52 316.8 1588.2 316.8C1597.37 316.8 1603.98 316.373 1608.04 315.52C1612.3 314.667 1614.44 312.32 1614.44 308.48C1614.44 304.213 1611.02 301.013 1604.2 298.88C1597.37 296.747 1587.98 293.653 1576.04 289.6C1562.17 284.693 1551.61 279.04 1544.36 272.64C1537.32 266.027 1533.8 256.32 1533.8 243.52C1533.8 228.587 1539.34 217.173 1550.44 209.28C1561.74 201.173 1579.66 197.12 1604.2 197.12C1613.8 197.12 1623.29 197.867 1632.68 199.36C1642.06 200.853 1649.74 202.56 1655.72 204.48V243.2C1649.74 240.427 1642.92 238.4 1635.24 237.12C1627.56 235.84 1620.62 235.2 1614.44 235.2C1606.54 235.2 1599.82 235.733 1594.28 236.8C1588.94 237.653 1586.28 239.893 1586.28 243.52C1586.28 247.573 1589.26 250.453 1595.24 252.16C1601.21 253.653 1609.85 256.213 1621.16 259.84C1633.1 263.467 1642.38 267.413 1649 271.68C1655.61 275.733 1660.3 280.64 1663.08 286.4C1665.85 292.16 1667.24 299.413 1667.24 308.16C1667.24 323.307 1661.26 334.933 1649.32 343.04C1637.37 351.147 1619.77 355.2 1596.52 355.2Z" fill="#506AEA"/>
</svg>
