<svg xmlns="http://www.w3.org/2000/svg" viewBox="0 0 100 100" fill="none">
  <path d="M6.017 4.313l55.333-4.087c6.797-.583 8.543-.19 12.817 2.917l17.663 12.443c2.913 2.14 3.883 2.723 3.883 5.053v68.243c0 4.277-1.553 6.807-6.99 7.193L24.467 99.967c-4.08.193-6.023-.39-8.16-3.113L3.3 79.94c-2.333-3.113-3.3-5.443-3.3-8.167V11.113c0-3.497 1.553-6.413 6.017-6.8z" fill="#fff"/>
  <path fill-rule="evenodd" clip-rule="evenodd" d="M61.35.227l-55.333 4.087C1.553 4.7 0 7.617 0 11.113v60.66c0 2.723.967 5.053 3.3 8.167l13.007 16.913c2.137 2.723 4.08 3.307 8.16 3.113l64.257-3.89c5.433-.387 6.99-2.917 6.99-7.193V20.64c0-2.21-.873-2.847-3.443-4.733L75.05 3.533C70.76.437 68.983-.16 62.19.227l-.84.001zM25.92 19.523c-5.247.353-6.437.433-9.417-1.99L8.927 11.507c-.77-.78-.39-1.75 1.36-1.943l53.193-3.887c4.467-.39 6.793 1.167 8.54 2.527l9.123 6.61c.39.197 1.36 1.36.193 1.36l-54.933 3.307-.483.042zM19.803 88.3V30.367c0-2.53.78-3.697 3.1-3.89L81 22.747c2.14-.193 3.107 1.167 3.107 3.693v57.547c0 2.53-.39 4.67-3.883 4.863l-56.143 3.31c-3.497.193-5.277-.973-5.277-3.86zm55.166-54.404c.39 1.75 0 3.5-1.75 3.697l-2.72.583v42.773c-2.333 1.167-4.47 1.75-6.217 1.75-2.913 0-3.687-.917-5.833-3.5l-17.86-28.02v27.047l5.64 1.36s0 3.5-4.857 3.5l-13.397.773c-.39-.777 0-2.723 1.357-3.11l3.497-.97v-35.77l-4.857-.39c-.39-1.75.583-4.277 3.3-4.473l14.163-.967 18.637 28.597v-25.323l-4.857-.583c-.39-2.143 1.163-3.693 3.103-3.89l13.85-.583z" fill="#000"/>
</svg>