<svg width="512" height="512" viewBox="0 0 512 512" fill="none" xmlns="http://www.w3.org/2000/svg">
<g clip-path="url(#clip0_659_6)">
<rect width="512" height="512" fill="white"/>
<path d="M173.789 361V154.92H275.229C291.655 154.92 305.202 158.227 315.869 164.84C326.535 171.24 334.429 179.987 339.549 191.08C344.882 202.173 347.549 214.653 347.549 228.52C347.549 242.6 344.562 255.08 338.589 265.96C332.615 276.84 324.082 285.373 312.989 291.56C302.109 297.533 289.095 300.52 273.949 300.52H225.309V361H173.789ZM225.309 260.84H262.429C273.309 260.84 281.415 257.853 286.749 251.88C292.295 245.907 295.069 238.013 295.069 228.2C295.069 217.533 292.509 209.32 287.389 203.56C282.482 197.587 274.695 194.6 264.029 194.6H225.309V260.84Z" fill="#506AEA"/>
</g>
<defs>
<clipPath id="clip0_659_6">
<rect width="512" height="512" fill="white"/>
</clipPath>
</defs>
</svg>
