<svg width="512" height="512" viewBox="0 0 512 512" fill="none" xmlns="http://www.w3.org/2000/svg">
<g clip-path="url(#clip0_659_2)">
<rect width="512" height="512" fill="white"/>
<rect width="512" height="512" fill="#506AEA"/>
<path d="M175.789 361V154.92H277.229C293.655 154.92 307.202 158.227 317.869 164.84C328.535 171.24 336.429 179.987 341.549 191.08C346.882 202.173 349.549 214.653 349.549 228.52C349.549 242.6 346.562 255.08 340.589 265.96C334.615 276.84 326.082 285.373 314.989 291.56C304.109 297.533 291.095 300.52 275.949 300.52H227.309V361H175.789ZM227.309 260.84H264.429C275.309 260.84 283.415 257.853 288.749 251.88C294.295 245.907 297.069 238.013 297.069 228.2C297.069 217.533 294.509 209.32 289.389 203.56C284.482 197.587 276.695 194.6 266.029 194.6H227.309V260.84Z" fill="white"/>
</g>
<defs>
<clipPath id="clip0_659_2">
<rect width="512" height="512" fill="white"/>
</clipPath>
</defs>
</svg>
