<svg width="1583" height="285" viewBox="0 0 1583 285" fill="none" xmlns="http://www.w3.org/2000/svg">
<path d="M9.77516e-05 215.68V9.60004H87.0401C110.08 9.60004 127.04 15.7867 137.92 28.16C148.8 40.5334 154.24 56.5334 154.24 76.16C154.24 96.2134 148.053 112.107 135.68 123.84C123.52 135.36 106.88 141.12 85.7601 141.12H26.2401V215.68H9.77516e-05ZM26.2401 120.64H81.6001C96.9601 120.64 108.48 116.693 116.16 108.8C124.053 100.693 128 89.8134 128 76.16C128 61.6534 124.267 50.4534 116.8 42.5601C109.547 34.4534 98.3468 30.4 83.2001 30.4H26.2401V120.64ZM186.25 215.68V64H209.93L211.85 83.2C219.317 78.2934 228.063 73.8134 238.09 69.76C248.33 65.7067 258.357 62.72 268.17 60.8V81.28C262.197 82.56 255.69 84.3734 248.65 86.72C241.61 88.8534 234.89 91.3067 228.49 94.08C222.09 96.8534 216.757 99.7334 212.49 102.72V215.68H186.25ZM360.065 218.88C333.612 218.88 314.305 212.16 302.145 198.72C290.198 185.067 284.225 165.44 284.225 139.84C284.225 114.453 290.305 94.9334 302.465 81.28C314.625 67.6267 333.825 60.8 360.065 60.8C386.305 60.8 405.505 67.6267 417.665 81.28C429.825 94.9334 435.905 114.453 435.905 139.84C435.905 165.44 429.932 185.067 417.985 198.72C406.038 212.16 386.732 218.88 360.065 218.88ZM360.065 196.48C378.198 196.48 390.998 192 398.465 183.04C405.932 173.867 409.665 159.467 409.665 139.84C409.665 120.213 405.825 105.92 398.145 96.96C390.678 87.7867 377.985 83.2 360.065 83.2C342.145 83.2 329.345 87.7867 321.665 96.96C314.198 105.92 310.465 120.213 310.465 139.84C310.465 159.467 314.198 173.867 321.665 183.04C329.132 192 341.932 196.48 360.065 196.48ZM474.375 215.68V64H498.055L499.655 81.28C507.762 74.88 516.295 69.8667 525.255 66.2401C534.428 62.6134 544.242 60.8 554.695 60.8C566.002 60.8 574.748 62.6134 580.935 66.2401C587.335 69.8667 592.028 74.9867 595.015 81.6C602.268 75.6267 610.588 70.72 619.975 66.88C629.362 62.8267 640.562 60.8 653.575 60.8C670.855 60.8 683.655 65.28 691.975 74.24C700.508 82.9867 704.775 96.5334 704.775 114.88V215.68H678.855V117.44C678.855 104 675.975 94.7201 670.215 89.6C664.668 84.48 655.602 81.92 643.015 81.92C634.695 81.92 626.695 83.3067 619.015 86.08C611.548 88.8534 605.148 93.12 599.815 98.8801C601.095 104.213 601.735 110.4 601.735 117.44V215.68H577.095V118.08C577.095 105.28 574.962 96.1067 570.695 90.56C566.428 84.8 558.002 81.92 545.415 81.92C536.882 81.92 528.668 83.8401 520.775 87.6801C513.095 91.3067 506.268 95.8934 500.295 101.44V215.68H474.375ZM748.125 284.8V64H770.525L772.445 80C779.485 73.3867 787.165 68.5867 795.485 65.6C804.018 62.4 813.938 60.8 825.245 60.8C846.578 60.8 863.325 66.7734 875.485 78.72C887.645 90.4534 893.725 110.08 893.725 137.6C893.725 164.907 887.645 185.28 875.485 198.72C863.325 212.16 846.472 218.88 824.925 218.88C805.085 218.88 788.232 214.08 774.365 204.48V284.8H748.125ZM817.885 197.76C834.952 197.76 847.432 192.96 855.325 183.36C863.432 173.547 867.485 158.293 867.485 137.6C867.485 117.76 863.752 103.573 856.285 95.0401C848.818 86.2934 836.232 81.92 818.525 81.92C809.778 81.92 801.672 83.4134 794.205 86.4C786.738 89.3867 780.125 93.9734 774.365 100.16V182.72C779.698 187.413 785.992 191.147 793.245 193.92C800.498 196.48 808.712 197.76 817.885 197.76ZM987.548 218.88C972.614 218.88 961.308 214.933 953.628 207.04C946.161 198.933 942.428 187.733 942.428 173.44V84.8001H919.388V64H942.428V26.56L968.668 18.56V64H1010.59L1008.99 84.8001H968.668V172.16C968.668 181.333 970.694 187.947 974.748 192C979.014 195.84 986.268 197.76 996.508 197.76C1002.05 197.76 1008.13 196.693 1014.75 194.56V214.4C1006.85 217.387 997.788 218.88 987.548 218.88Z" fill="#333333"/>
<path d="M1085.64 218.88C1069 218.88 1057.05 215.253 1049.8 208C1042.55 200.747 1038.92 189.12 1038.92 173.12V4.57764e-05H1090.44V168C1090.44 172.907 1091.4 176.32 1093.32 178.24C1095.45 179.947 1098.55 180.8 1102.6 180.8C1108.36 180.8 1113.48 180.053 1117.96 178.56V213.44C1113.05 215.36 1108.15 216.747 1103.24 217.6C1098.55 218.453 1092.68 218.88 1085.64 218.88ZM1218.64 218.88C1192.18 218.88 1170.96 212.373 1154.96 199.36C1138.96 186.133 1130.96 166.293 1130.96 139.84C1130.96 115.733 1137.57 96.5334 1150.8 82.24C1164.02 67.9467 1183.86 60.8 1210.32 60.8C1234.42 60.8 1253.09 66.9867 1266.32 79.36C1279.54 91.7334 1286.16 108.373 1286.16 129.28V156.48H1178.64C1180.98 166.507 1186.42 173.547 1194.96 177.6C1203.7 181.44 1215.54 183.36 1230.48 183.36C1238.8 183.36 1247.22 182.613 1255.76 181.12C1264.5 179.627 1271.76 177.707 1277.52 175.36V208.96C1270.26 212.373 1261.62 214.827 1251.6 216.32C1241.57 218.027 1230.58 218.88 1218.64 218.88ZM1178.64 126.72H1241.36V120C1241.36 112.533 1239.12 106.667 1234.64 102.4C1230.16 97.92 1222.58 95.68 1211.92 95.68C1199.54 95.68 1190.9 98.24 1186 103.36C1181.09 108.267 1178.64 116.053 1178.64 126.72ZM1367.12 218.88C1354.96 218.88 1343.44 218.027 1332.56 216.32C1321.68 214.613 1313.04 212.48 1306.64 209.92V170.56C1314.1 173.76 1322.74 176.213 1332.56 177.92C1342.37 179.627 1351.12 180.48 1358.8 180.48C1367.97 180.48 1374.58 180.053 1378.64 179.2C1382.9 178.347 1385.04 176 1385.04 172.16C1385.04 167.893 1381.62 164.693 1374.8 162.56C1367.97 160.427 1358.58 157.333 1346.64 153.28C1332.77 148.373 1322.21 142.72 1314.96 136.32C1307.92 129.707 1304.4 120 1304.4 107.2C1304.4 92.2667 1309.94 80.8534 1321.04 72.9601C1332.34 64.8534 1350.26 60.8 1374.8 60.8C1384.4 60.8 1393.89 61.5467 1403.28 63.04C1412.66 64.5334 1420.34 66.24 1426.32 68.16V106.88C1420.34 104.107 1413.52 102.08 1405.84 100.8C1398.16 99.52 1391.22 98.8801 1385.04 98.8801C1377.14 98.8801 1370.42 99.4134 1364.88 100.48C1359.54 101.333 1356.88 103.573 1356.88 107.2C1356.88 111.253 1359.86 114.133 1365.84 115.84C1371.81 117.333 1380.45 119.893 1391.76 123.52C1403.7 127.147 1412.98 131.093 1419.6 135.36C1426.21 139.413 1430.9 144.32 1433.68 150.08C1436.45 155.84 1437.84 163.093 1437.84 171.84C1437.84 186.987 1431.86 198.613 1419.92 206.72C1407.97 214.827 1390.37 218.88 1367.12 218.88ZM1512.12 218.88C1499.96 218.88 1488.44 218.027 1477.56 216.32C1466.68 214.613 1458.04 212.48 1451.64 209.92V170.56C1459.1 173.76 1467.74 176.213 1477.56 177.92C1487.37 179.627 1496.12 180.48 1503.8 180.48C1512.97 180.48 1519.58 180.053 1523.64 179.2C1527.9 178.347 1530.04 176 1530.04 172.16C1530.04 167.893 1526.62 164.693 1519.8 162.56C1512.97 160.427 1503.58 157.333 1491.64 153.28C1477.77 148.373 1467.21 142.72 1459.96 136.32C1452.92 129.707 1449.4 120 1449.4 107.2C1449.4 92.2667 1454.94 80.8534 1466.04 72.9601C1477.34 64.8534 1495.26 60.8 1519.8 60.8C1529.4 60.8 1538.89 61.5467 1548.28 63.04C1557.66 64.5334 1565.34 66.24 1571.32 68.16V106.88C1565.34 104.107 1558.52 102.08 1550.84 100.8C1543.16 99.52 1536.22 98.8801 1530.04 98.8801C1522.14 98.8801 1515.42 99.4134 1509.88 100.48C1504.54 101.333 1501.88 103.573 1501.88 107.2C1501.88 111.253 1504.86 114.133 1510.84 115.84C1516.81 117.333 1525.45 119.893 1536.76 123.52C1548.7 127.147 1557.98 131.093 1564.6 135.36C1571.21 139.413 1575.9 144.32 1578.68 150.08C1581.45 155.84 1582.84 163.093 1582.84 171.84C1582.84 186.987 1576.86 198.613 1564.92 206.72C1552.97 214.827 1535.37 218.88 1512.12 218.88Z" fill="#506AEA"/>
</svg>
