<svg xmlns="http://www.w3.org/2000/svg" width="1740" height="510" fill="none"><path fill="#fff" d="M84.4 352V145.92h87.04c23.04 0 40 6.187 50.88 18.56 10.88 12.373 16.32 28.373 16.32 48 0 20.053-6.187 35.947-18.56 47.68-12.16 11.52-28.8 17.28-49.92 17.28h-59.52V352H84.4Zm26.24-95.04H166c15.36 0 26.88-3.947 34.56-11.84 7.893-8.107 11.84-18.987 11.84-32.64 0-14.507-3.733-25.707-11.2-33.6-7.253-8.107-18.453-12.16-33.6-12.16h-56.96v90.24ZM270.65 352V200.32h23.68l1.92 19.2c7.467-4.907 16.213-9.387 26.24-13.44 10.24-4.053 20.267-7.04 30.08-8.96v20.48c-5.973 1.28-12.48 3.093-19.52 5.44-7.04 2.133-13.76 4.587-20.16 7.36-6.4 2.773-11.733 5.653-16 8.64V352h-26.24Zm173.815 3.2c-26.453 0-45.76-6.72-57.92-20.16-11.947-13.653-17.92-33.28-17.92-58.88 0-25.387 6.08-44.907 18.24-58.56 12.16-13.653 31.36-20.48 57.6-20.48 26.24 0 45.44 6.827 57.6 20.48 12.16 13.653 18.24 33.173 18.24 58.56 0 25.6-5.973 45.227-17.92 58.88-11.947 13.44-31.253 20.16-57.92 20.16Zm0-22.4c18.133 0 30.933-4.48 38.4-13.44 7.467-9.173 11.2-23.573 11.2-43.2 0-19.627-3.84-33.92-11.52-42.88-7.467-9.173-20.16-13.76-38.08-13.76-17.92 0-30.72 4.587-38.4 13.76-7.467 8.96-11.2 23.253-11.2 42.88 0 19.627 3.733 34.027 11.2 43.2 7.467 8.96 20.267 13.44 38.4 13.44Zm114.31 19.2V200.32h23.68l1.6 17.28c8.107-6.4 16.64-11.413 25.6-15.04 9.173-3.627 18.987-5.44 29.44-5.44 11.307 0 20.053 1.813 26.24 5.44 6.4 3.627 11.093 8.747 14.08 15.36 7.253-5.973 15.573-10.88 24.96-14.72 9.387-4.053 20.587-6.08 33.6-6.08 17.28 0 30.08 4.48 38.4 13.44 8.533 8.747 12.8 22.293 12.8 40.64V352h-25.92v-98.24c0-13.44-2.88-22.72-8.64-27.84-5.547-5.12-14.613-7.68-27.2-7.68-8.32 0-16.32 1.387-24 4.16-7.467 2.773-13.867 7.04-19.2 12.8 1.28 5.333 1.92 11.52 1.92 18.56V352h-24.64v-97.6c0-12.8-2.133-21.973-6.4-27.52-4.267-5.76-12.693-8.64-25.28-8.64-8.533 0-16.747 1.92-24.64 5.76-7.68 3.627-14.507 8.213-20.48 13.76V352h-25.92Zm273.75 69.12v-220.8h22.4l1.92 16c7.04-6.613 14.72-11.413 23.04-14.4 8.533-3.2 18.453-4.8 29.76-4.8 21.333 0 38.08 5.973 50.24 17.92 12.16 11.733 18.24 31.36 18.24 58.88 0 27.307-6.08 47.68-18.24 61.12-12.16 13.44-29.013 20.16-50.56 20.16-19.84 0-36.693-4.8-50.56-14.4v80.32h-26.24Zm69.76-87.04c17.067 0 29.547-4.8 37.44-14.4 8.107-9.813 12.16-25.067 12.16-45.76 0-19.84-3.733-34.027-11.2-42.56-7.467-8.747-20.053-13.12-37.76-13.12-8.747 0-16.853 1.493-24.32 4.48-7.467 2.987-14.08 7.573-19.84 13.76v82.56c5.333 4.693 11.627 8.427 18.88 11.2 7.253 2.56 15.467 3.84 24.64 3.84Zm169.665 21.12c-14.94 0-26.24-3.947-33.92-11.84-7.47-8.107-11.2-19.307-11.2-33.6v-88.64h-23.04v-20.8h23.04v-37.44l26.24-8v45.44h41.92l-1.6 20.8h-40.32v87.36c0 9.173 2.02 15.787 6.08 19.84 4.26 3.84 11.52 5.76 21.76 5.76 5.54 0 11.62-1.067 18.24-3.2v19.84c-7.9 2.987-16.96 4.48-27.2 4.48Z"/><path fill="#506AEA" d="M1170.04 355.2c-16.64 0-28.59-3.627-35.84-10.88-7.25-7.253-10.88-18.88-10.88-34.88V136.32h51.52v168c0 4.907.96 8.32 2.88 10.24 2.13 1.707 5.23 2.56 9.28 2.56 5.76 0 10.88-.747 15.36-2.24v34.88c-4.91 1.92-9.81 3.307-14.72 4.16-4.69.853-10.56 1.28-17.6 1.28Zm133 0c-26.46 0-47.68-6.507-63.68-19.52-16-13.227-24-33.067-24-59.52 0-24.107 6.61-43.307 19.84-57.6 13.22-14.293 33.06-21.44 59.52-21.44 24.1 0 42.77 6.187 56 18.56 13.22 12.373 19.84 29.013 19.84 49.92v27.2h-107.52c2.34 10.027 7.78 17.067 16.32 21.12 8.74 3.84 20.58 5.76 35.52 5.76 8.32 0 16.74-.747 25.28-2.24 8.74-1.493 16-3.413 21.76-5.76v33.6c-7.26 3.413-15.9 5.867-25.92 7.36-10.03 1.707-21.02 2.56-32.96 2.56Zm-40-92.16h62.72v-6.72c0-7.467-2.24-13.333-6.72-17.6-4.48-4.48-12.06-6.72-22.72-6.72-12.38 0-21.02 2.56-25.92 7.68-4.91 4.907-7.36 12.693-7.36 23.36Zm188.48 92.16c-12.16 0-23.68-.853-34.56-2.56-10.88-1.707-19.52-3.84-25.92-6.4v-39.36c7.46 3.2 16.1 5.653 25.92 7.36 9.81 1.707 18.56 2.56 26.24 2.56 9.17 0 15.78-.427 19.84-1.28 4.26-.853 6.4-3.2 6.4-7.04 0-4.267-3.42-7.467-10.24-9.6-6.83-2.133-16.22-5.227-28.16-9.28-13.87-4.907-24.43-10.56-31.68-16.96-7.04-6.613-10.56-16.32-10.56-29.12 0-14.933 5.54-26.347 16.64-34.24 11.3-8.107 29.22-12.16 53.76-12.16 9.6 0 19.09.747 28.48 2.24 9.38 1.493 17.06 3.2 23.04 5.12v38.72c-5.98-2.773-12.8-4.8-20.48-6.08-7.68-1.28-14.62-1.92-20.8-1.92-7.9 0-14.62.533-20.16 1.6-5.34.853-8 3.093-8 6.72 0 4.053 2.98 6.933 8.96 8.64 5.97 1.493 14.61 4.053 25.92 7.68 11.94 3.627 21.22 7.573 27.84 11.84 6.61 4.053 11.3 8.96 14.08 14.72 2.77 5.76 4.16 13.013 4.16 21.76 0 15.147-5.98 26.773-17.92 34.88-11.95 8.107-29.55 12.16-52.8 12.16Zm145 0c-12.16 0-23.68-.853-34.56-2.56-10.88-1.707-19.52-3.84-25.92-6.4v-39.36c7.46 3.2 16.1 5.653 25.92 7.36 9.81 1.707 18.56 2.56 26.24 2.56 9.17 0 15.78-.427 19.84-1.28 4.26-.853 6.4-3.2 6.4-7.04 0-4.267-3.42-7.467-10.24-9.6-6.83-2.133-16.22-5.227-28.16-9.28-13.87-4.907-24.43-10.56-31.68-16.96-7.04-6.613-10.56-16.32-10.56-29.12 0-14.933 5.54-26.347 16.64-34.24 11.3-8.107 29.22-12.16 53.76-12.16 9.6 0 19.09.747 28.48 2.24 9.38 1.493 17.06 3.2 23.04 5.12v38.72c-5.98-2.773-12.8-4.8-20.48-6.08-7.68-1.28-14.62-1.92-20.8-1.92-7.9 0-14.62.533-20.16 1.6-5.34.853-8 3.093-8 6.72 0 4.053 2.98 6.933 8.96 8.64 5.97 1.493 14.61 4.053 25.92 7.68 11.94 3.627 21.22 7.573 27.84 11.84 6.61 4.053 11.3 8.96 14.08 14.72 2.77 5.76 4.16 13.013 4.16 21.76 0 15.147-5.98 26.773-17.92 34.88-11.95 8.107-29.55 12.16-52.8 12.16Z"/></svg>