<svg width="32" height="32" viewBox="0 0 32 32" fill="none" xmlns="http://www.w3.org/2000/svg">
<rect width="32" height="32" rx="2" fill="white"/>
<path d="M12.1778 12.8418C12.1778 14.237 11.0466 15.3682 9.65138 15.3682C8.2562 15.3682 7.125 14.237 7.125 12.8418C7.125 11.4466 8.2562 10.3154 9.65138 10.3154C11.0466 10.3154 12.1778 11.4466 12.1778 12.8418Z" fill="url(#paint0_linear_3541_13079)"/>
<path d="M18.4931 12.8418C18.4931 14.237 17.3619 15.3682 15.9667 15.3682C14.5716 15.3682 13.4404 14.237 13.4404 12.8418C13.4404 11.4466 14.5716 10.3154 15.9667 10.3154C17.3619 10.3154 18.4931 11.4466 18.4931 12.8418Z" fill="url(#paint1_linear_3541_13079)"/>
<path d="M12.1778 19.1577C12.1778 20.5529 11.0466 21.6841 9.65138 21.6841C8.2562 21.6841 7.125 20.5533 7.125 19.1577C7.125 17.7626 8.2562 16.6313 9.65138 16.6313C11.0466 16.6313 12.1778 17.7626 12.1778 19.1577Z" fill="url(#paint2_linear_3541_13079)"/>
<path d="M18.4931 19.1577C18.4931 20.5529 17.3619 21.6841 15.9667 21.6841C14.5716 21.6841 13.4404 20.5529 13.4404 19.1577C13.4404 17.7626 14.5716 16.6313 15.9667 16.6313C17.3619 16.6313 18.4931 17.7626 18.4931 19.1577Z" fill="url(#paint3_linear_3541_13079)"/>
<path d="M12.1778 6.52638C12.1778 7.92157 11.0466 9.05277 9.65138 9.05277C8.2562 9.05277 7.125 7.92157 7.125 6.52638C7.125 5.1312 8.2562 4 9.65138 4C11.0466 4 12.1778 5.1312 12.1778 6.52638Z" fill="url(#paint4_linear_3541_13079)"/>
<path d="M18.4931 6.52638C18.4931 7.92157 17.3619 9.05277 15.9667 9.05277C14.5716 9.05277 13.4404 7.92157 13.4404 6.52638C13.4404 5.1312 14.5716 4 15.9667 4C17.3619 4 18.4931 5.1312 18.4931 6.52638Z" fill="url(#paint5_linear_3541_13079)"/>
<path d="M24.8108 6.52638C24.8108 7.92157 23.6796 9.05277 22.2844 9.05277C20.8892 9.05277 19.758 7.92157 19.758 6.52638C19.7585 5.1312 20.8892 4 22.2844 4C23.6796 4 24.8108 5.1312 24.8108 6.52638Z" fill="url(#paint6_linear_3541_13079)"/>
<path d="M24.8108 12.8418C24.8108 14.237 23.6796 15.3682 22.2844 15.3682C20.8892 15.3682 19.758 14.237 19.758 12.8418C19.758 11.4466 20.8892 10.3154 22.2844 10.3154C23.6796 10.3154 24.8108 11.4466 24.8108 12.8418Z" fill="url(#paint7_linear_3541_13079)"/>
<path d="M12.1778 25.4736C12.1778 26.8688 11.0466 28 9.65138 28C8.2562 28 7.125 26.8688 7.125 25.4736C7.125 24.0785 8.2562 22.9473 9.65138 22.9473C11.0466 22.9473 12.1778 24.0781 12.1778 25.4736Z" fill="url(#paint8_linear_3541_13079)"/>
<path d="M24.8108 19.1577C24.8108 20.5529 23.6796 21.6841 22.2844 21.6841C20.8892 21.6841 19.758 20.5529 19.758 19.1577C19.758 17.7626 20.8892 16.6313 22.2844 16.6313C23.6796 16.6313 24.8108 17.7626 24.8108 19.1577Z" fill="url(#paint9_linear_3541_13079)"/>
<defs>
<linearGradient id="paint0_linear_3541_13079" x1="9.65139" y1="10.3154" x2="9.65139" y2="15.3682" gradientUnits="userSpaceOnUse">
<stop stop-color="#272331"/>
<stop offset="1" stop-color="#0F1315"/>
</linearGradient>
<linearGradient id="paint1_linear_3541_13079" x1="15.9667" y1="10.3154" x2="15.9667" y2="15.3682" gradientUnits="userSpaceOnUse">
<stop stop-color="#272331"/>
<stop offset="1" stop-color="#0F1315"/>
</linearGradient>
<linearGradient id="paint2_linear_3541_13079" x1="9.65139" y1="16.6313" x2="9.65139" y2="21.6841" gradientUnits="userSpaceOnUse">
<stop stop-color="#272331"/>
<stop offset="1" stop-color="#0F1315"/>
</linearGradient>
<linearGradient id="paint3_linear_3541_13079" x1="15.9667" y1="16.6313" x2="15.9667" y2="21.6841" gradientUnits="userSpaceOnUse">
<stop stop-color="#272331"/>
<stop offset="1" stop-color="#0F1315"/>
</linearGradient>
<linearGradient id="paint4_linear_3541_13079" x1="9.65139" y1="4" x2="9.65139" y2="9.05277" gradientUnits="userSpaceOnUse">
<stop stop-color="#272331"/>
<stop offset="1" stop-color="#0F1315"/>
</linearGradient>
<linearGradient id="paint5_linear_3541_13079" x1="15.9667" y1="4" x2="15.9667" y2="9.05277" gradientUnits="userSpaceOnUse">
<stop stop-color="#272331"/>
<stop offset="1" stop-color="#0F1315"/>
</linearGradient>
<linearGradient id="paint6_linear_3541_13079" x1="22.2844" y1="4" x2="22.2844" y2="9.05277" gradientUnits="userSpaceOnUse">
<stop stop-color="#272331"/>
<stop offset="1" stop-color="#0F1315"/>
</linearGradient>
<linearGradient id="paint7_linear_3541_13079" x1="22.2844" y1="10.3154" x2="22.2844" y2="15.3682" gradientUnits="userSpaceOnUse">
<stop stop-color="#272331"/>
<stop offset="1" stop-color="#0F1315"/>
</linearGradient>
<linearGradient id="paint8_linear_3541_13079" x1="9.65139" y1="22.9473" x2="9.65139" y2="28" gradientUnits="userSpaceOnUse">
<stop stop-color="#272331"/>
<stop offset="1" stop-color="#0F1315"/>
</linearGradient>
<linearGradient id="paint9_linear_3541_13079" x1="22.2844" y1="16.6313" x2="22.2844" y2="21.6841" gradientUnits="userSpaceOnUse">
<stop stop-color="#272331"/>
<stop offset="1" stop-color="#0F1315"/>
</linearGradient>
</defs>
</svg>
