<svg width="141" height="41" viewBox="0 0 141 41" fill="none" xmlns="http://www.w3.org/2000/svg">
<g clip-path="url(#clip0_1329_2467)">
<path d="M8.42113 15.0113C8.42113 17.3366 6.53582 19.2219 4.21056 19.2219C1.88531 19.2219 0 17.3366 0 15.0113C0 12.6861 1.88531 10.8008 4.21056 10.8008C6.53582 10.8008 8.42113 12.6861 8.42113 15.0113Z" fill="black"/>
<path d="M18.9475 15.0113C18.9475 17.3366 17.0622 19.2219 14.7369 19.2219C12.4117 19.2219 10.5264 17.3366 10.5264 15.0113C10.5264 12.6861 12.4117 10.8008 14.7369 10.8008C17.0622 10.8008 18.9475 12.6861 18.9475 15.0113Z" fill="black"/>
<path d="M8.42113 25.5348C8.42113 27.86 6.53582 29.7453 4.21056 29.7453C1.88531 29.7453 0 27.8607 0 25.5348C0 23.2095 1.88531 21.3242 4.21056 21.3242C6.53582 21.3242 8.42113 23.2095 8.42113 25.5348Z" fill="black"/>
<path d="M18.9475 25.5348C18.9475 27.86 17.0622 29.7453 14.7369 29.7453C12.4117 29.7453 10.5264 27.86 10.5264 25.5348C10.5264 23.2095 12.4117 21.3242 14.7369 21.3242C17.0622 21.3242 18.9475 23.2095 18.9475 25.5348Z" fill="black"/>
<path d="M8.42113 4.484C8.42113 6.80926 6.53582 8.69456 4.21056 8.69456C1.88531 8.69456 0 6.80926 0 4.484C0 2.15874 1.88531 0.273438 4.21056 0.273438C6.53582 0.273438 8.42113 2.15874 8.42113 4.484Z" fill="black"/>
<path d="M18.9475 4.484C18.9475 6.80926 17.0622 8.69456 14.7369 8.69456C12.4117 8.69456 10.5264 6.80926 10.5264 4.484C10.5264 2.15874 12.4117 0.273438 14.7369 0.273438C17.0622 0.273438 18.9475 2.15874 18.9475 4.484Z" fill="black"/>
<path d="M29.4729 4.484C29.4729 6.80926 27.5876 8.69456 25.2623 8.69456C22.9371 8.69456 21.0518 6.80926 21.0518 4.484C21.0525 2.15874 22.9371 0.273438 25.2623 0.273438C27.5876 0.273438 29.4729 2.15874 29.4729 4.484Z" fill="black"/>
<path d="M29.4729 15.0113C29.4729 17.3366 27.5876 19.2219 25.2623 19.2219C22.9371 19.2219 21.0518 17.3366 21.0518 15.0113C21.0518 12.6861 22.9371 10.8008 25.2623 10.8008C27.5876 10.8008 29.4729 12.6861 29.4729 15.0113Z" fill="black"/>
<path d="M8.42113 36.0621C8.42113 38.3874 6.53582 40.2727 4.21056 40.2727C1.88531 40.2727 0 38.3874 0 36.0621C0 33.7369 1.88531 31.8516 4.21056 31.8516C6.53582 31.8516 8.42113 33.7362 8.42113 36.0621Z" fill="black"/>
<path d="M29.4729 25.5348C29.4729 27.86 27.5876 29.7453 25.2623 29.7453C22.9371 29.7453 21.0518 27.86 21.0518 25.5348C21.0518 23.2095 22.9371 21.3242 25.2623 21.3242C27.5876 21.3242 29.4729 23.2095 29.4729 25.5348Z" fill="black"/>
<path d="M66.3912 9.92375C66.3912 15.0198 62.5187 19.0079 57.2596 19.0079H51.1037V29.3618H46.334V0.824219H57.2596C62.5187 0.824219 66.3912 4.90928 66.3912 9.92375ZM61.581 9.92375C61.581 7.55945 59.7466 5.39037 57.2596 5.39037H51.1037V14.4418H57.2596C59.7466 14.4411 61.581 12.3285 61.581 9.92375Z" fill="black"/>
<path d="M80.0523 9.26356V13.4218C79.4004 13.2587 78.7073 13.1367 78.0547 13.1367C75.1605 13.1367 72.7955 15.1342 72.7955 18.7215V29.3612H68.2705V9.42671H72.7955V12.0769C73.978 10.1609 75.8124 9.01953 78.1767 9.01953C78.7882 9.01953 79.4408 9.14155 80.0523 9.26356Z" fill="black"/>
<path d="M100.598 19.4152C100.598 25.3263 96.0733 29.7698 90.2438 29.7698C84.4143 29.7698 79.9297 25.3263 79.9297 19.4152C79.9297 13.5041 84.4143 9.01953 90.2438 9.01953C96.0733 9.02023 100.598 13.5041 100.598 19.4152ZM84.4136 19.4152C84.4136 22.7989 86.941 25.4079 90.2431 25.4079C93.5452 25.4079 96.1138 22.7989 96.1138 19.4152C96.1138 15.9911 93.5452 13.3814 90.2431 13.3814C86.941 13.3821 84.4136 15.9911 84.4136 19.4152Z" fill="black"/>
<path d="M112.343 29.3609H108.429L100.072 9.42578H105.005L110.386 23.2867L115.727 9.42578H120.7L112.343 29.3609Z" fill="black"/>
<path d="M140.068 20.475H124.699C125.147 23.6551 127.227 25.6526 130.61 25.6526C133.056 25.6526 134.972 24.5113 135.38 22.7989H139.946C139.213 26.9976 135.421 29.7698 130.529 29.7698C124.7 29.7698 120.175 25.2447 120.175 19.2925C120.175 13.5034 124.7 9.01953 130.448 9.01953C135.829 9.01953 140.191 13.1367 140.191 18.9662C140.19 19.4968 140.15 20.0678 140.068 20.475ZM135.257 17.0098C134.972 14.5228 132.933 12.7699 130.202 12.7699C127.512 12.7699 125.555 14.4412 124.862 17.0098H135.257Z" fill="black"/>
</g>
<defs>
<clipPath id="clip0_1329_2467">
<rect width="140.19" height="40" fill="white" transform="translate(0 0.273438)"/>
</clipPath>
</defs>
</svg>
