<svg width="16" height="16" viewBox="0 0 16 16" fill="none" xmlns="http://www.w3.org/2000/svg">
<path d="M6.73957 0.69513L7.94790 3.31796L9.15143 0.69513L10.36454 0.69513L7.93831 5.68666L5.53125 0.69513L6.73957 0.69513Z" fill="#6860FF"/>
<path d="M12.27407 1.94342L11.27386 4.65246L13.97951 3.64886L14.83731 4.50666L9.59216 6.32060L11.41965 1.08901L12.27407 1.94342Z" fill="#6860FF"/>
<path d="M15.30487 6.73957L12.68204 7.94790L15.30487 9.15143L15.30487 10.36454L10.31334 7.93831L15.30487 5.53125L15.30487 6.73957Z" fill="#6860FF"/>
<path d="M14.05658 12.27407L11.34754 11.27386L12.35114 13.97951L11.49334 14.83731L9.67940 9.59216L14.91099 11.41965L14.05658 12.27407Z" fill="#6860FF"/>
<path d="M9.26043 15.30487L8.05210 12.68204L6.84857 15.30487L5.63546 15.30487L8.06169 10.31334L10.46875 15.30487L9.26043 15.30487Z" fill="#6860FF"/>
<path d="M3.72593 14.05658L4.72614 11.34754L2.02049 12.35114L1.16269 11.49334L6.40784 9.67940L4.58035 14.91099L3.72593 14.05658Z" fill="#6860FF"/>
<path d="M0.69513 9.26043L3.31796 8.05210L0.69513 6.84857L0.69513 5.63546L5.68666 8.06169L0.69513 10.46875L0.69513 9.26043Z" fill="#6860FF"/>
<path d="M1.94342 3.72593L4.65246 4.72614L3.64886 2.02049L4.50666 1.16269L6.32060 6.40784L1.08901 4.58035L1.94342 3.72593Z" fill="#6860FF"/>
</svg>
