<svg width="66" height="20" viewBox="0 0 66 20" fill="none" xmlns="http://www.w3.org/2000/svg">
<path d="M2.90211 8.14351L5.80422 14.3736L8.69482 8.14351H11.6084L5.78119 20L0 8.14351H2.90211Z" fill="white"/>
<path d="M23.1708 14.2938H15.1324C15.2015 15.205 15.501 15.9301 16.0307 16.4692C16.5605 17.0008 17.2399 17.2665 18.0691 17.2665C18.714 17.2665 19.2476 17.1147 19.6699 16.8109C20.0845 16.5072 20.5566 15.9453 21.0864 15.1253L23.2745 16.3326C22.9367 16.9021 22.5797 17.3918 22.2035 17.8018C21.8273 18.2043 21.4242 18.5383 20.9942 18.8041C20.5643 19.0623 20.0998 19.2521 19.6008 19.3736C19.1017 19.4951 18.5605 19.5558 17.977 19.5558C16.3033 19.5558 14.9597 19.0243 13.9463 17.9613C12.9328 16.8907 12.4261 15.4708 12.4261 13.7016C12.4261 11.9476 12.9175 10.5277 13.9002 9.44191C14.8906 8.3713 16.2035 7.83599 17.8388 7.83599C19.4894 7.83599 20.7946 8.35611 21.7543 9.39636C22.7063 10.429 23.1823 11.8603 23.1823 13.6902L23.1708 14.2938ZM20.5106 12.1982C20.1497 10.8314 19.2783 10.1481 17.8964 10.1481C17.5816 10.1481 17.286 10.1974 17.0096 10.2961C16.7332 10.3872 16.4798 10.5239 16.2495 10.7062C16.0269 10.8808 15.8349 11.0934 15.6737 11.344C15.5125 11.5945 15.3896 11.8793 15.3052 12.1982H20.5106Z" fill="white"/>
<path d="M28.6065 0V19.2369H26.0154V0H28.6065Z" fill="white"/>
<path d="M34.4798 0V19.2369H31.8887V0H34.4798Z" fill="white"/>
<path d="M40.3532 8.14351V14.5103C40.3532 16.3478 41.0864 17.2665 42.5528 17.2665C44.0192 17.2665 44.7524 16.3478 44.7524 14.5103V8.14351H47.3436V14.5672C47.3436 15.4556 47.2322 16.2225 47.0096 16.8679C46.7946 17.445 46.4223 17.9651 45.8925 18.4282C45.0173 19.18 43.904 19.5558 42.5528 19.5558C41.2092 19.5558 40.0998 19.18 39.2246 18.4282C38.6871 17.9651 38.3071 17.445 38.0845 16.8679C37.8695 16.3516 37.762 15.5847 37.762 14.5672V8.14351H40.3532Z" fill="white"/>
<path d="M50.6142 8.14351H53.2054V9.16856C53.7044 8.65224 54.1305 8.30296 54.4837 8.12073C54.8599 7.9309 55.3321 7.83599 55.9002 7.83599C57.167 7.83599 58.1689 8.38269 58.906 9.47608C59.7198 8.38269 60.8215 7.83599 62.2111 7.83599C64.737 7.83599 66 9.3508 66 12.3804V19.2369H63.3973V13.0752C63.3973 12.0121 63.2668 11.2604 63.0058 10.82C62.737 10.3721 62.2956 10.1481 61.6814 10.1481C60.9674 10.1481 60.4453 10.4138 60.1152 10.9453C59.7927 11.4768 59.6315 12.3311 59.6315 13.508V19.2369H57.0288V13.1093C57.0288 11.1352 56.453 10.1481 55.3013 10.1481C54.572 10.1481 54.0384 10.4176 53.7006 10.9567C53.3704 11.4958 53.2054 12.3462 53.2054 13.508V19.2369H50.6142V8.14351Z" fill="white"/>
</svg>
