<svg width="174" height="50" viewBox="0 0 174 50" fill="none" xmlns="http://www.w3.org/2000/svg">
<path d="M11.1426 34.5776V14.334H19.5471C21.7718 14.334 23.4095 14.9417 24.46 16.1572C25.5106 17.3726 26.0359 18.9443 26.0359 20.8723C26.0359 22.8421 25.4385 24.4034 24.2438 25.556C23.0696 26.6876 21.4628 27.2534 19.4235 27.2534H13.6763V34.5776H11.1426ZM13.6763 25.2416H19.0218C20.505 25.2416 21.6173 24.8539 22.3589 24.0786C23.1211 23.2822 23.5022 22.2135 23.5022 20.8723C23.5022 19.4472 23.1417 18.347 22.4207 17.5717C21.7204 16.7753 20.6389 16.3772 19.1763 16.3772H13.6763V25.2416ZM29.1268 34.5776V19.6778H31.4133L31.5987 21.5638C32.3197 21.0818 33.1642 20.6417 34.1324 20.2436C35.1212 19.8455 36.0894 19.5521 37.0369 19.3635V21.3752C36.4602 21.501 35.8318 21.6791 35.1521 21.9096C34.4723 22.1192 33.8234 22.3602 33.2054 22.6326C32.5875 22.905 32.0725 23.1879 31.6605 23.4813V34.5776H29.1268ZM45.9102 34.8919C43.3559 34.8919 41.4917 34.2318 40.3175 32.9116C39.1639 31.5704 38.5872 29.6424 38.5872 27.1277C38.5872 24.6339 39.1742 22.7164 40.3484 21.3752C41.5226 20.0341 43.3765 19.3635 45.9102 19.3635C48.4439 19.3635 50.2979 20.0341 51.4721 21.3752C52.6462 22.7164 53.2333 24.6339 53.2333 27.1277C53.2333 29.6424 52.6565 31.5704 51.503 32.9116C50.3494 34.2318 48.4852 34.8919 45.9102 34.8919ZM45.9102 32.6915C47.6611 32.6915 48.8971 32.2515 49.6181 31.3713C50.3391 30.4702 50.6996 29.0557 50.6996 27.1277C50.6996 25.1997 50.3288 23.7957 49.5872 22.9155C48.8662 22.0144 47.6406 21.5638 45.9102 21.5638C44.1799 21.5638 42.9439 22.0144 42.2024 22.9155C41.4813 23.7957 41.1209 25.1997 41.1209 27.1277C41.1209 29.0557 41.4813 30.4702 42.2024 31.3713C42.9234 32.2515 44.1593 32.6915 45.9102 32.6915ZM56.9479 34.5776V19.6778H59.2345L59.389 21.3752C60.1718 20.7466 60.9957 20.2541 61.8609 19.8978C62.7466 19.5415 63.6942 19.3635 64.7036 19.3635C65.7954 19.3635 66.6399 19.5415 67.2373 19.8978C67.8553 20.2541 68.3084 20.7571 68.5969 21.4067C69.2972 20.8199 70.1006 20.3379 71.007 19.9607C71.9134 19.5626 72.9948 19.3635 74.2514 19.3635C75.9199 19.3635 77.1559 19.8035 77.9592 20.6837C78.7832 21.5429 79.1952 22.8736 79.1952 24.6758V34.5776H76.6924V24.9273C76.6924 23.6071 76.4143 22.6955 75.8581 22.1925C75.3225 21.6896 74.4471 21.4381 73.2317 21.4381C72.4283 21.4381 71.6559 21.5744 70.9143 21.8468C70.1933 22.1192 69.5753 22.5383 69.0603 23.1041C69.1839 23.628 69.2457 24.2358 69.2457 24.9273V34.5776H66.8665V24.9902C66.8665 23.7328 66.6605 22.8317 66.2485 22.2868C65.8365 21.721 65.0229 21.4381 63.8075 21.4381C62.9836 21.4381 62.1904 21.6267 61.4283 22.0039C60.6867 22.3602 60.0275 22.8107 59.4508 23.3556V34.5776H56.9479ZM83.3811 41.3674V19.6778H85.544L85.7294 21.2495C86.4092 20.5999 87.1507 20.1284 87.9541 19.835C88.7781 19.5206 89.7359 19.3635 90.8277 19.3635C92.8876 19.3635 94.5047 19.9502 95.6789 21.1238C96.8535 22.2763 97.4406 24.2043 97.4406 26.9077C97.4406 29.5901 96.8535 31.5914 95.6789 32.9116C94.5047 34.2318 92.8774 34.8919 90.7968 34.8919C88.8811 34.8919 87.2538 34.4204 85.9148 33.4774V41.3674H83.3811ZM90.117 32.8173C91.765 32.8173 92.9701 32.3458 93.7322 31.4027C94.515 30.4388 94.9064 28.9404 94.9064 26.9077C94.9064 24.9587 94.5459 23.5651 93.8249 22.7269C93.1039 21.8677 91.8886 21.4381 90.1788 21.4381C89.3342 21.4381 88.5515 21.5848 87.8305 21.8782C87.1095 22.1716 86.471 22.6221 85.9148 23.2299V31.3399C86.4297 31.8009 87.0375 32.1677 87.7378 32.4401C88.4382 32.6915 89.2313 32.8173 90.117 32.8173ZM106.5 34.8919C105.057 34.8919 103.966 34.5042 103.224 33.7289C102.503 32.9325 102.143 31.8323 102.143 30.4283V21.721H99.9183V19.6778H102.143V16L104.677 15.2141V19.6778H108.725L108.57 21.721H104.677V30.3026C104.677 31.2036 104.872 31.8533 105.264 32.2515C105.675 32.6287 106.376 32.8173 107.365 32.8173C107.9 32.8173 108.487 32.7125 109.126 32.5029V34.4519C108.363 34.7453 107.489 34.8919 106.5 34.8919Z" fill="#333333"/>
<path d="M115.972 34.892C114.365 34.892 113.212 34.5357 112.512 33.8232C111.811 33.1107 111.461 31.9686 111.461 30.3969V13.391H116.436V29.8939C116.436 30.376 116.528 30.7112 116.714 30.8998C116.919 31.0675 117.219 31.1513 117.61 31.1513C118.166 31.1513 118.66 31.0779 119.093 30.9313V34.3576C118.619 34.5462 118.146 34.6824 117.672 34.7662C117.219 34.85 116.652 34.892 115.972 34.892ZM128.815 34.892C126.26 34.892 124.211 34.2528 122.666 32.9745C121.121 31.6752 120.348 29.7263 120.348 27.1277C120.348 24.7597 120.987 22.8736 122.264 21.4696C123.541 20.0655 125.456 19.3635 128.011 19.3635C130.338 19.3635 132.141 19.9712 133.419 21.1867C134.695 22.4021 135.334 24.0367 135.334 26.0904V28.7623H124.952C125.178 29.7473 125.703 30.4388 126.528 30.837C127.372 31.2142 128.515 31.4028 129.958 31.4028C130.761 31.4028 131.574 31.3294 132.399 31.1827C133.243 31.0361 133.944 30.8475 134.5 30.6169V33.9175C133.799 34.2528 132.965 34.4938 131.997 34.6405C131.029 34.8082 129.968 34.892 128.815 34.892ZM124.952 25.8389H131.008V25.1788C131.008 24.4453 130.792 23.8691 130.36 23.4499C129.927 23.0099 129.195 22.7898 128.166 22.7898C126.97 22.7898 126.136 23.0413 125.663 23.5442C125.189 24.0263 124.952 24.7911 124.952 25.8389ZM143.152 34.892C141.978 34.892 140.865 34.8082 139.815 34.6405C138.764 34.4728 137.93 34.2633 137.312 34.0118V30.1454C138.032 30.4598 138.866 30.7007 139.815 30.8684C140.762 31.0361 141.607 31.1199 142.348 31.1199C143.234 31.1199 143.872 31.0779 144.264 30.9941C144.675 30.9103 144.882 30.6798 144.882 30.3026C144.882 29.8834 144.552 29.5691 143.893 29.3596C143.234 29.15 142.327 28.8461 141.174 28.448C139.835 27.9659 138.815 27.4106 138.115 26.782C137.435 26.1323 137.096 25.1788 137.096 23.9214C137.096 22.4545 137.63 21.3333 138.702 20.558C139.793 19.7616 141.524 19.3635 143.893 19.3635C144.82 19.3635 145.737 19.4369 146.643 19.5835C147.549 19.7302 148.291 19.8979 148.868 20.0865V23.89C148.291 23.6176 147.632 23.4185 146.891 23.2928C146.149 23.167 145.479 23.1042 144.882 23.1042C144.119 23.1042 143.47 23.1565 142.935 23.2613C142.42 23.3451 142.163 23.5652 142.163 23.9214C142.163 24.3196 142.451 24.6025 143.028 24.7702C143.605 24.9168 144.439 25.1683 145.531 25.5246C146.684 25.8809 147.58 26.2685 148.219 26.6876C148.857 27.0858 149.31 27.5678 149.579 28.1336C149.846 28.6994 149.98 29.4119 149.98 30.2711C149.98 31.7591 149.403 32.9011 148.25 33.6975C147.096 34.4938 145.397 34.892 143.152 34.892ZM157.153 34.892C155.979 34.892 154.866 34.8082 153.816 34.6405C152.765 34.4728 151.931 34.2633 151.313 34.0118V30.1454C152.033 30.4598 152.868 30.7007 153.816 30.8684C154.763 31.0361 155.608 31.1199 156.349 31.1199C157.235 31.1199 157.873 31.0779 158.265 30.9941C158.677 30.9103 158.883 30.6798 158.883 30.3026C158.883 29.8834 158.553 29.5691 157.894 29.3596C157.235 29.15 156.328 28.8461 155.175 28.448C153.836 27.9659 152.816 27.4106 152.116 26.782C151.437 26.1323 151.097 25.1788 151.097 23.9214C151.097 22.4545 151.632 21.3333 152.703 20.558C153.794 19.7616 155.525 19.3635 157.894 19.3635C158.821 19.3635 159.738 19.4369 160.644 19.5835C161.55 19.7302 162.292 19.8979 162.869 20.0865V23.89C162.292 23.6176 161.633 23.4185 160.892 23.2928C160.15 23.167 159.48 23.1042 158.883 23.1042C158.12 23.1042 157.471 23.1565 156.937 23.2613C156.421 23.3451 156.164 23.5652 156.164 23.9214C156.164 24.3196 156.452 24.6025 157.029 24.7702C157.606 24.9168 158.44 25.1683 159.532 25.5246C160.685 25.8809 161.581 26.2685 162.22 26.6876C162.859 27.0858 163.311 27.5678 163.58 28.1336C163.847 28.6994 163.982 29.4119 163.982 30.2711C163.982 31.7591 163.404 32.9011 162.251 33.6975C161.097 34.4938 159.398 34.892 157.153 34.892Z" fill="#506AEA"/>
</svg>
